<svg xmlns="http://www.w3.org/2000/svg" version="1.0" width="300.000000pt" height="139.000000pt" viewBox="0 0 300.000000 139.000000" preserveAspectRatio="xMidYMid meet">

    <g transform="translate(0.000000,139.000000) scale(0.100000,-0.100000)" fill="#000000" stroke="none">
        <path d="M1482 1028 c3 -306 5 -353 18 -353 13 0 15 47 18 353 2 348 2 352 -18 352 -20 0 -20 -4 -18 -352z" fill="#dc007f"/>
        <path d="M1858 1367 c-71 -21 -153 -79 -192 -140 -125 -190 -60 -431 143 -526 48 -22 69 -26 151 -26 83 0 103 4 154 28 l60 28 36 -36 36 -35 39 40 39 40 -35 36 -35 35 30 62 c28 55 31 70 31 157 0 87 -3 100 -32 155 -63 120 -167 186 -303 192 -42 1 -96 -3 -122 -10z m197 -116 c105 -48 166 -177 136 -286 -20 -73 -26 -75 -72 -29 -34 34 -42 49 -43 83 -3 48 -32 85 -83 102 -74 24 -158 -60 -134 -134 16 -47 52 -78 99 -84 30 -4 51 -16 83 -49 l43 -43 -37 -16 c-49 -20 -133 -19 -182 4 -50 22 -108 86 -126 137 -56 165 56 334 221 334 32 0 72 -8 95 -19z" fill="#dc007f"/>
        <path d="M773 1017 l-202 -352 406 -3 c223 -1 408 0 410 2 5 5 -395 700 -405 703 -4 2 -98 -156 -209 -350z m316 -59 c55 -98 101 -180 101 -183 0 -7 -405 -7 -412 0 -3 3 35 77 84 163 105 183 119 205 122 200 2 -1 49 -83 105 -180z" fill="#dc007f"/>
        <path d="M1125 481 c-84 -21 -146 -82 -171 -168 -55 -191 143 -358 328 -276 l46 21 23 -24 23 -25 24 26 24 26 -22 24 c-21 22 -21 24 -4 56 9 18 19 61 22 95 13 162 -133 284 -293 245z m150 -95 c58 -45 82 -137 53 -201 l-11 -25 -29 27 c-18 17 -28 37 -28 55 0 31 -39 78 -64 78 -30 0 -65 -23 -76 -49 -20 -48 15 -101 67 -101 11 0 32 -14 48 -30 37 -38 25 -50 -51 -50 -65 0 -111 29 -142 90 -77 150 101 306 233 206z" fill="#3e509d"/>
        <path d="M146 254 c-70 -124 -126 -227 -124 -230 3 -2 122 -3 264 -2 l260 3 -131 227 c-71 125 -132 227 -135 227 -3 0 -63 -101 -134 -225z m206 -42 l67 -117 -70 -3 c-38 -2 -100 -2 -138 0 l-70 3 67 117 c37 65 69 118 72 118 3 0 35 -53 72 -118z" fill="#3e509d"/>
        <path d="M1612 313 c3 -156 5 -171 28 -212 33 -57 84 -83 165 -83 88 0 147 36 176 107 6 17 14 102 17 193 l5 162 -198 0 -197 0 4 -167z m306 2 c6 -178 -18 -225 -113 -225 -43 0 -57 5 -77 25 -14 14 -28 39 -32 56 -8 43 -8 224 1 233 4 3 54 5 112 4 l106 -3 3 -90z" fill="#3e509d"/>
        <path d="M1750 185 c0 -8 11 -22 25 -31 30 -20 66 -9 85 26 10 19 8 20 -50 20 -46 0 -60 -3 -60 -15z" fill="#3e509d"/>
        <path d="M2210 445 c0 -32 2 -35 30 -35 l30 0 0 -160 0 -160 -30 0 c-28 0 -30 -3 -30 -35 l0 -35 100 0 100 0 0 34 c0 30 -3 35 -27 38 l-28 3 -3 158 -3 157 31 0 c28 0 30 3 30 35 l0 35 -100 0 -100 0 0 -35z" fill="#3e509d"/>
        <path d="M2620 450 l0 -30 90 0 c50 0 90 -3 90 -7 0 -3 -40 -79 -90 -167 -61 -110 -90 -172 -90 -194 l0 -32 185 0 185 0 0 35 0 35 -85 0 c-47 0 -85 2 -85 5 0 3 36 77 80 165 47 94 80 172 80 190 l0 30 -180 0 -180 0 0 -30z m300 -36 c0 -4 -39 -78 -87 -165 -80 -143 -91 -159 -115 -159 -26 0 -26 2 58 152 46 83 89 158 95 165 12 13 49 18 49 7z" fill="#3e509d"/>
    </g>
</svg>