<?xml version="1.0" standalone="no"?>
<!DOCTYPE svg PUBLIC "-//W3C//DTD SVG 20010904//EN"
 "http://www.w3.org/TR/2001/REC-SVG-20010904/DTD/svg10.dtd">
<svg version="1.0" xmlns="http://www.w3.org/2000/svg"
 width="300.000000pt" height="300.000000pt" viewBox="0 0 300.000000 300.000000"
 preserveAspectRatio="xMidYMid meet">
<metadata>
Created by potrace 1.14, written by Peter Selinger 2001-2017
</metadata>
<g transform="translate(0.000000,300.000000) scale(0.100000,-0.100000)"
fill="#000000" stroke="none">
<path d="M1958 2185 c-2 -2 -24 -5 -50 -7 -26 -3 -77 -19 -112 -37 -131 -64
-204 -193 -194 -344 17 -256 285 -405 522 -291 l49 24 34 -35 c37 -39 46 -38
87 11 l29 35 -33 34 -33 34 26 53 c55 112 52 240 -8 344 -54 93 -148 155 -257
172 -32 5 -59 8 -60 7z m85 -131 c51 -17 110 -75 133 -129 20 -49 24 -123 8
-177 -8 -26 -18 -48 -21 -48 -4 0 -24 17 -45 37 -29 29 -38 45 -38 71 0 103
-122 157 -194 86 -69 -70 -18 -194 81 -194 21 0 40 -12 72 -45 l42 -44 -37
-16 c-73 -30 -181 -9 -242 48 -76 70 -97 221 -44 307 36 59 77 91 142 113 31
11 98 7 143 -9z"/>
<path d="M925 2084 c-32 -55 -68 -116 -81 -136 -13 -21 -24 -40 -24 -42 0 -2
-56 -102 -125 -221 -69 -119 -125 -219 -125 -223 0 -6 813 -9 829 -3 2 0 -1 7
-6 14 -6 6 -22 32 -35 57 -14 25 -99 173 -190 330 -90 157 -169 293 -175 304
-9 16 -18 5 -68 -80z m164 -331 c54 -95 94 -174 87 -174 -53 -6 -396 -2 -396
4 0 15 195 347 202 344 5 -1 52 -80 107 -174z"/>
<path d="M1483 1825 c1 -322 2 -355 17 -355 15 0 16 33 16 352 -1 314 -3 353
-17 356 -14 3 -16 -33 -16 -353z"/>
<path d="M1110 1279 c-127 -39 -200 -179 -156 -302 49 -135 175 -194 315 -147
l62 21 19 -23 18 -23 26 24 c32 30 32 35 4 60 -15 15 -18 24 -11 33 20 25 39
104 36 145 -6 84 -54 158 -126 195 -48 24 -136 32 -187 17z m150 -86 c48 -27
75 -80 75 -144 0 -32 -5 -63 -11 -69 -17 -17 -56 25 -60 64 -4 37 -45 76 -80
76 -32 0 -74 -42 -74 -73 0 -34 36 -77 66 -77 13 0 38 -12 55 -27 28 -25 29
-28 13 -40 -27 -20 -102 -16 -140 7 -116 73 -94 263 36 298 41 11 84 5 120
-15z"/>
<path d="M1613 1273 c-3 -7 -3 -86 -2 -175 4 -182 13 -212 78 -255 74 -50 205
-36 261 28 39 43 47 87 48 261 l0 154 -190 0 c-146 0 -191 -3 -195 -13z m292
-75 c9 -5 12 -141 6 -231 0 -10 -14 -32 -30 -48 -24 -24 -38 -29 -76 -29 -38
0 -52 5 -76 29 -32 33 -31 26 -33 171 -1 79 2 106 11 110 19 8 186 6 198 -2z"/>
<path d="M1758 1000 l-23 -6 27 -27 c29 -29 55 -34 80 -14 21 16 30 47 15 48
-59 4 -79 3 -99 -1z"/>
<path d="M2210 1244 c0 -33 4 -41 18 -41 43 0 42 2 42 -153 l0 -150 -31 0
c-29 0 -30 -1 -27 -42 l3 -43 95 0 95 0 3 43 c3 41 2 42 -26 42 l-29 0 1 153
1 152 28 -2 c26 -2 27 0 27 41 l0 43 -100 0 -100 -1 0 -42z"/>
<path d="M2617 1281 c-2 -4 -2 -19 -2 -36 l0 -30 80 -2 c44 0 85 -2 92 -2 6
-1 -28 -72 -76 -159 -95 -170 -105 -193 -97 -219 5 -16 23 -18 190 -18 l184 0
4 37 4 38 -88 0 -88 0 84 168 c54 109 83 179 82 198 l-2 29 -183 1 c-100 0
-183 -2 -184 -5z m214 -229 c-67 -121 -92 -158 -109 -160 -12 -2 -22 -1 -22 3
0 3 30 59 66 123 117 208 112 201 133 195 16 -4 8 -24 -68 -161z"/>
<path d="M143 1053 c-72 -126 -127 -230 -123 -233 5 -3 124 -5 266 -5 196 0
258 3 262 13 2 6 -1 12 -7 12 -6 0 -11 4 -11 9 0 12 -239 426 -248 429 -4 1
-66 -100 -139 -225z m206 -40 c33 -58 58 -109 55 -112 -7 -7 -254 -9 -254 -2
0 11 124 221 130 221 4 0 35 -48 69 -107z"/>
</g>
</svg>
